<?xml version="1.0" encoding="utf-8"?>
<!-- Generator: Adobe Illustrator 23.0.1, SVG Export Plug-In . SVG Version: 6.00 Build 0)  -->
<svg version="1.1" id="Capa_1" xmlns="http://www.w3.org/2000/svg" xmlns:xlink="http://www.w3.org/1999/xlink" x="0px" y="0px"
	 viewBox="0 0 1061.96 148" style="enable-background:new 0 0 1061.96 148;" xml:space="preserve">
<style type="text/css">
	.st0{fill:#E86374;}
	.st1{fill:#FFFFFF;}
</style>
<path class="st0" d="M546.33,105.47h24.56c0.88,4.03,3.15,7.81,10.83,7.81c9.44,0,12.59-5.54,12.59-12.59v-10.2
	c-3.27,6.3-10.2,11.58-20.02,11.58c-14.99,0-27.58-10.83-27.58-31.23v-1.01c0-19.77,12.47-31.61,27.45-31.61
	c10.33,0,16.5,4.28,20.15,10.96v-9.07h24.81v60.19c0,19.65-12.97,30.1-37.53,30.1C558.8,130.4,548.1,121.08,546.33,105.47z
	 M595.07,70.84v-0.88c0-8.06-4.16-13.35-11.59-13.35c-7.56,0-11.59,5.16-11.59,13.47v1.01c0,8.06,4.03,13.35,11.59,13.35
	C590.79,84.44,595.07,79.15,595.07,70.84z"/>
<path class="st0" d="M627.81,73.86v-1.01c0-21.41,15.99-34.51,36.77-34.51c20.53,0,36.52,12.72,36.52,33.88v1.01
	c0,21.66-16.12,34.38-36.65,34.38C643.93,107.61,627.81,95.52,627.81,73.86z M675.92,73.35v-0.88c0-10.33-3.65-15.87-11.33-15.87
	c-7.56,0-11.71,5.16-11.71,15.49v1.01c0,10.7,3.78,16.25,11.71,16.25C672.14,89.35,675.92,83.81,675.92,73.35z"/>
<path class="st0" d="M734.6,95.9v10.07H709.8V11.52h24.81v38.16c3.65-6.17,10.2-11.33,20.15-11.33c14.99,0,27.58,11.21,27.58,34.25
	v1.01c0,23.05-12.72,34-27.71,34C744.93,107.61,737.88,102.95,734.6,95.9z M757.15,73.35v-1.01c0-10.58-4.28-15.62-11.71-15.62
	c-7.3,0-11.46,5.54-11.46,15.62v1.01c0,10.2,4.03,15.36,11.59,15.36C752.99,88.72,757.15,83.43,757.15,73.35z"/>
<path class="st1" d="M24.6,14.25h24.81v39.16c3.65-6.93,10.7-12.34,21.79-12.34c12.47,0,21.16,7.93,21.16,24.3v43.32H67.54V70.92
	c0-6.67-2.39-10.07-8.31-10.07c-6.17,0-9.82,3.65-9.82,11.46v36.39H24.6V14.25z"/>
<path class="st1" d="M103.44,25.46c0-7.3,5.79-12.59,13.47-12.59c7.56,0,13.35,5.29,13.35,12.59c0,7.18-5.79,12.47-13.35,12.47
	C109.23,37.93,103.44,32.64,103.44,25.46z M104.57,42.84h24.68v65.86h-24.68V42.84z"/>
<path class="st1" d="M138.95,76.46v-1.01c0-22.92,12.47-34.38,27.45-34.38c10.33,0,16.5,4.16,20.15,10.83V14.25h24.81v94.45h-24.81
	V98.12c-3.27,6.8-10.2,12.21-20.15,12.21C151.54,110.34,138.95,99.63,138.95,76.46z M187.18,75.96v-1.01
	c0-9.95-4.03-15.49-11.46-15.49c-7.56,0-11.58,5.04-11.58,15.62v1.01c0,10.2,4.16,15.36,11.46,15.36
	C183.03,91.45,187.18,86.16,187.18,75.96z"/>
<path class="st1" d="M219.8,90.44c0-15.49,12.59-21.53,35.39-21.53h5.67v-1.13c0-5.54-1.01-9.57-7.68-9.57
	c-5.67,0-7.43,3.65-7.81,7.05h-23.17c1.01-16.12,13.6-24.3,32.49-24.3c19.14,0,30.73,7.81,30.73,25.19v42.56h-23.93v-7.56
	c-2.77,4.53-8.56,9.19-19.27,9.19C230.38,110.34,219.8,104.55,219.8,90.44z M260.85,85.66v-3.4h-5.29c-8.31,0-11.33,1.64-11.33,6.3
	c0,3.15,2.39,5.16,6.93,5.16C256.82,93.72,260.85,90.57,260.85,85.66z"/>
<path class="st1" d="M297.5,14.25h24.68v94.45H297.5V14.25z"/>
<path class="st1" d="M331.12,108.2h24.56c0.88,4.03,3.15,7.81,10.83,7.81c9.44,0,12.59-5.54,12.59-12.59v-10.2
	c-3.27,6.3-10.2,11.58-20.02,11.58c-14.99,0-27.58-10.83-27.58-31.23v-1.01c0-19.77,12.47-31.61,27.45-31.61
	c10.33,0,16.5,4.28,20.15,10.96v-9.07h24.81v60.19c0,19.65-12.97,30.1-37.53,30.1C343.59,133.13,332.88,123.81,331.12,108.2z
	 M379.86,73.57v-0.88c0-8.06-4.16-13.35-11.59-13.35c-7.56,0-11.58,5.16-11.58,13.47v1.01c0,8.06,4.03,13.35,11.58,13.35
	C375.57,87.17,379.86,81.88,379.86,73.57z"/>
<path class="st1" d="M412.6,76.59v-1.01c0-21.41,15.99-34.51,36.77-34.51c20.53,0,36.52,12.72,36.52,33.88v1.01
	c0,21.66-16.12,34.38-36.65,34.38C428.72,110.34,412.6,98.25,412.6,76.59z M460.7,76.09V75.2c0-10.33-3.65-15.87-11.33-15.87
	c-7.56,0-11.71,5.16-11.71,15.49v1.01c0,10.7,3.78,16.25,11.71,16.25C456.93,92.08,460.7,86.54,460.7,76.09z"/>
<path class="st1" d="M852.52,38.47h24.81v10.07c3.65-6.3,10.58-11.84,20.78-11.84c8.82,0,14.61,3.65,17.63,10.58
	c5.79-7.43,13.47-10.58,21.66-10.58c12.59,0,21.41,8.19,21.41,24.18v43.45h-24.68V65.42c0-5.79-2.9-8.81-7.43-8.81
	c-5.54,0-8.69,3.65-8.69,9.95v37.78h-24.56V65.42c0-5.79-3.02-8.81-7.3-8.81c-5.67,0-8.81,3.65-8.81,9.95v37.78h-24.81V38.47z"/>
<path class="st1" d="M987.02,70.96l-20.28-32.49h28.46l8.94,16.12l8.94-16.12h25.31l-20.53,30.6l22.67,35.26h-28.46l-10.58-18.39
	l-11.08,18.39h-25.06L987.02,70.96z"/>
<circle class="st0" cx="516.11" cy="70.96" r="20.18"/>
<circle class="st0" cx="811.21" cy="70.96" r="20.18"/>
</svg>
